<svg width="138" height="139" viewBox="0 0 138 139" fill="none" xmlns="http://www.w3.org/2000/svg">
<g filter="url(#filter0_d_3409_3503)">
<path d="M4 13.5416C4 6.0628 10.0628 0 17.5417 0H120.458C127.937 0 134 6.0628 134 13.5416V116.458C134 123.937 127.937 130 120.458 130H17.5417C10.0628 130 4 123.937 4 116.458V13.5416Z" fill="#303133"/>
<mask id="mask0_3409_3503" style="mask-type:alpha" maskUnits="userSpaceOnUse" x="4" y="54" width="130" height="76">
<path d="M4 54.1641H134V116.456C134 123.934 127.937 129.997 120.458 129.997H17.5417C10.0628 129.997 4 123.934 4 116.456V54.1641Z" fill="#0015D6"/>
</mask>
<g mask="url(#mask0_3409_3503)">
<path d="M79.6989 144.906C76.7816 138.02 79.9993 130.073 86.8857 127.155L129.28 109.196C136.167 106.279 144.114 109.497 147.031 116.383L149.144 121.371C152.062 128.257 148.844 136.204 141.957 139.122L99.5629 157.081C92.6764 159.998 84.729 156.78 81.8117 149.894L79.6989 144.906Z" fill="#1976D2"/>
<path d="M57.9391 163.186C52.0817 158.535 51.1031 150.017 55.7533 144.16L84.3811 108.101C89.0313 102.243 97.5494 101.265 103.407 105.915L107.649 109.283C113.506 113.933 114.485 122.451 109.835 128.308L81.2071 164.368C76.5569 170.225 68.0388 171.204 62.1814 166.554L57.9391 163.186Z" fill="#1976D2"/>
<path fill-rule="evenodd" clip-rule="evenodd" d="M162.169 32.7623C156.629 34.5621 152.04 36.0897 151.971 36.1572C151.902 36.2247 152.692 37.2216 153.725 38.3721C154.758 39.5226 155.596 40.6314 155.587 40.8359C155.569 41.2327 118.717 81.2548 118.183 81.4568C118.009 81.5223 113.693 76.2059 108.592 69.6415L99.3173 57.7067L98.3843 58.8189C97.8712 59.4305 87.813 70.3658 76.0331 83.12C54.7533 106.159 54.6101 106.302 53.8358 105.334C53.4071 104.799 49.3045 99.533 44.7183 93.6339C36.6285 83.2272 36.3556 82.9325 35.566 83.7604C34.2564 85.133 -14.9161 138.542 -15.8174 139.571C-16.6199 140.487 -16.5691 140.594 -13.3395 144.77L-10.0419 149.035L12.7478 124.359L35.5371 99.6829L36.4838 100.906C53.5751 122.978 53.684 123.106 54.5544 122.203C55.01 121.731 64.8896 111.037 76.5088 98.4379C88.1281 85.8392 97.764 75.4825 97.9214 75.4229C98.0792 75.3634 102.369 80.6642 107.455 87.2031L116.701 99.0911L118.895 96.7164C120.102 95.4098 130.49 84.1711 141.978 71.7409L162.867 49.1401L164.036 50.6525C166.058 53.2673 166.898 54.1705 167.112 53.9594C167.226 53.8469 168.514 48.8982 169.973 42.9625C171.432 37.0268 172.788 31.5769 172.986 30.8519C173.237 29.9295 173.18 29.5269 172.793 29.5118C172.49 29.4998 167.709 30.9625 162.169 32.7623Z" fill="white"/>
<path fill-rule="evenodd" clip-rule="evenodd" d="M161.477 65.3248C155.937 67.1246 151.348 68.6522 151.279 68.7197C151.211 68.7872 152 69.7841 153.033 70.9346C154.066 72.0851 154.904 73.1939 154.895 73.3984C154.877 73.7952 118.025 113.817 117.492 114.019C117.318 114.085 113.002 108.768 107.9 102.204L98.6257 90.2692L97.6927 91.3814C97.1795 91.993 87.1213 102.928 75.3415 115.682C54.0617 138.722 53.9184 138.865 53.1441 137.897C52.7154 137.361 48.6129 132.096 44.0266 126.196C35.9369 115.79 35.6639 115.495 34.8744 116.323C33.5648 117.696 -15.6078 171.105 -16.5091 172.134C-17.3115 173.049 -17.2608 173.156 -14.0311 177.333L-10.7336 181.597L12.0562 156.921L34.8455 132.245L35.7922 133.468C52.8835 155.54 52.9923 155.669 53.8628 154.766C54.3184 154.293 64.1979 143.599 75.8172 131C87.4364 118.402 97.0724 108.045 97.2298 107.985C97.3875 107.926 101.677 113.227 106.763 119.766L116.009 131.654L118.204 129.279C119.411 127.972 129.798 116.734 141.286 104.303L162.175 81.7026L163.344 83.215C165.367 85.8298 166.207 86.733 166.421 86.5219C166.535 86.4094 167.822 81.4608 169.281 75.525C170.741 69.5893 172.096 64.1394 172.294 63.4144C172.546 62.492 172.488 62.0894 172.102 62.0743C171.798 62.0623 167.017 63.525 161.477 65.3248Z" fill="#1976D2"/>
</g>
<path d="M46.096 45.168C45.76 45.168 45.504 45.04 45.328 44.784C45.152 44.528 45.168 44.2 45.376 43.8L47.368 39.936L40.72 29.28C40.496 28.928 40.464 28.616 40.624 28.344C40.784 28.056 41.048 27.912 41.416 27.912C41.656 27.912 41.848 27.976 41.992 28.104C42.152 28.216 42.296 28.384 42.424 28.608L48.328 38.088L53.176 28.632C53.288 28.424 53.416 28.256 53.56 28.128C53.704 27.984 53.904 27.912 54.16 27.912C54.512 27.912 54.776 28.04 54.952 28.296C55.128 28.536 55.112 28.864 54.904 29.28L47.104 44.448C47.008 44.656 46.88 44.832 46.72 44.976C46.576 45.104 46.368 45.168 46.096 45.168ZM67.1853 45.168C66.5293 45.168 66.2013 44.824 66.2013 44.136V37.32H64.1373C63.2413 37.32 62.4893 37.536 61.8813 37.968C61.2733 38.384 60.7373 39.072 60.2733 40.032L58.1373 44.52C57.9933 44.808 57.7933 44.992 57.5373 45.072C57.2813 45.168 57.0333 45.168 56.7933 45.072C56.5533 44.992 56.3773 44.84 56.2653 44.616C56.1693 44.376 56.2013 44.096 56.3613 43.776L58.6413 39.12C59.4733 37.424 60.5773 36.352 61.9533 35.904L57.5613 29.352C57.3693 29.064 57.3053 28.808 57.3693 28.584C57.4493 28.344 57.5933 28.168 57.8013 28.056C58.0253 27.944 58.2653 27.912 58.5213 27.96C58.7773 28.008 58.9933 28.168 59.1693 28.44L63.8973 35.616H66.2013V28.92C66.2013 28.248 66.5293 27.912 67.1853 27.912C67.8093 27.912 68.1213 28.248 68.1213 28.92V35.616H70.4493L75.1773 28.44C75.3533 28.168 75.5693 28.008 75.8253 27.96C76.0813 27.912 76.3133 27.944 76.5213 28.056C76.7453 28.168 76.8893 28.344 76.9533 28.584C77.0333 28.808 76.9773 29.064 76.7853 29.352L72.3933 35.904C73.0813 36.144 73.6973 36.536 74.2413 37.08C74.7853 37.608 75.2573 38.288 75.6573 39.12L77.9373 43.776C78.0973 44.096 78.1213 44.376 78.0093 44.616C77.9133 44.84 77.7453 44.992 77.5053 45.072C77.2653 45.168 77.0173 45.168 76.7613 45.072C76.5053 44.992 76.3053 44.808 76.1613 44.52L74.0253 40.032C73.5613 39.056 73.0253 38.36 72.4173 37.944C71.8253 37.528 71.0893 37.32 70.2093 37.32H68.1213V44.136C68.1213 44.824 67.8093 45.168 67.1853 45.168ZM96.4399 48.96C95.8319 48.96 95.5279 48.648 95.5279 48.024V45H82.0399C81.3199 45 80.9599 44.64 80.9599 43.92V28.944C80.9599 28.256 81.2879 27.912 81.9439 27.912C82.5999 27.912 82.9279 28.256 82.9279 28.944V43.296H92.9359V28.944C92.9359 28.256 93.2719 27.912 93.9439 27.912C94.5999 27.912 94.9279 28.256 94.9279 28.944V43.296H96.3199C96.9919 43.296 97.3279 43.624 97.3279 44.28V48.024C97.3279 48.648 97.0319 48.96 96.4399 48.96Z" fill="white"/>
</g>
<defs>
<filter id="filter0_d_3409_3503" x="0" y="0" width="138" height="139" filterUnits="userSpaceOnUse" color-interpolation-filters="sRGB">
<feFlood flood-opacity="0" result="BackgroundImageFix"/>
<feColorMatrix in="SourceAlpha" type="matrix" values="0 0 0 0 0 0 0 0 0 0 0 0 0 0 0 0 0 0 127 0" result="hardAlpha"/>
<feOffset dy="5"/>
<feGaussianBlur stdDeviation="2"/>
<feComposite in2="hardAlpha" operator="out"/>
<feColorMatrix type="matrix" values="0 0 0 0 0 0 0 0 0 0 0 0 0 0 0 0 0 0 0.25 0"/>
<feBlend mode="normal" in2="BackgroundImageFix" result="effect1_dropShadow_3409_3503"/>
<feBlend mode="normal" in="SourceGraphic" in2="effect1_dropShadow_3409_3503" result="shape"/>
</filter>
</defs>
</svg>
