<svg width="138" height="138" viewBox="0 0 138 138" fill="none" xmlns="http://www.w3.org/2000/svg">
<g filter="url(#filter0_d_3409_3512)">
<path d="M4 13.5417C4 6.06281 10.0628 0 17.5417 0H120.458C127.937 0 134 6.06281 134 13.5417V116.458C134 123.937 127.937 130 120.458 130H17.5417C10.0628 130 4 123.937 4 116.458V13.5417Z" fill="#303133"/>
<mask id="mask0_3409_3512" style="mask-type:alpha" maskUnits="userSpaceOnUse" x="4" y="56" width="130" height="74">
<path d="M4 56.875H134V116.458C134 123.937 127.937 130 120.458 130H17.5417C10.0628 130 4 123.937 4 116.458V56.875Z" fill="#0015D6"/>
</mask>
<g mask="url(#mask0_3409_3512)">
<path d="M85.9271 77.8672H61.5521C58.1853 77.8672 55.4888 80.5941 55.4888 83.9609L55.4584 132.711C55.4584 136.078 58.1549 138.805 61.5217 138.805H98.1146C101.481 138.805 104.208 136.078 104.208 132.711V96.1484L85.9271 77.8672ZM92.0209 126.617H67.6459V120.523H92.0209V126.617ZM92.0209 114.43H67.6459V108.336H92.0209V114.43ZM82.8802 99.1953V82.4375L99.6381 99.1953H82.8802Z" fill="#1976D2"/>
<path d="M119.469 65H95.0938C91.727 65 89.0305 67.727 89.0305 71.0938L89 119.844C89 123.211 91.6965 125.938 95.0633 125.938H131.656C135.023 125.938 137.75 123.211 137.75 119.844V83.2812L119.469 65ZM125.562 113.75H101.188V107.656H125.562V113.75ZM125.562 101.562H101.188V95.4688H125.562V101.562ZM116.422 86.3281V69.5703L133.18 86.3281H116.422Z" fill="white"/>
</g>
<path d="M43.072 45.168C42.416 45.168 42.088 44.824 42.088 44.136V29.16C42.088 28.44 42.448 28.08 43.168 28.08H54.976C55.696 28.08 56.056 28.44 56.056 29.16V44.136C56.056 44.824 55.728 45.168 55.072 45.168C54.4 45.168 54.064 44.824 54.064 44.136V29.784H44.056V44.136C44.056 44.824 43.728 45.168 43.072 45.168ZM65.4412 45.168C64.7852 45.168 64.4572 44.824 64.4572 44.136V29.784H59.0572C58.4492 29.784 58.1452 29.496 58.1452 28.92C58.1452 28.36 58.4492 28.08 59.0572 28.08H71.8492C72.4572 28.08 72.7612 28.36 72.7612 28.92C72.7612 29.496 72.4572 29.784 71.8492 29.784H66.4492V44.136C66.4492 44.824 66.1132 45.168 65.4412 45.168ZM80.9389 45.216C79.3709 45.216 78.0029 44.864 76.8349 44.16C75.6829 43.44 74.7869 42.432 74.1469 41.136C73.5229 39.84 73.2109 38.304 73.2109 36.528C73.2109 34.752 73.5229 33.216 74.1469 31.92C74.7709 30.624 75.6589 29.624 76.8109 28.92C77.9789 28.216 79.3549 27.864 80.9389 27.864C82.5389 27.864 83.9149 28.216 85.0669 28.92C86.2349 29.624 87.1309 30.624 87.7549 31.92C88.3949 33.2 88.7149 34.728 88.7149 36.504C88.7149 38.28 88.3949 39.824 87.7549 41.136C87.1149 42.432 86.2109 43.44 85.0429 44.16C83.8909 44.864 82.5229 45.216 80.9389 45.216ZM80.9389 43.464C82.7469 43.464 84.1469 42.856 85.1389 41.64C86.1309 40.424 86.6269 38.72 86.6269 36.528C86.6269 34.336 86.1309 32.64 85.1389 31.44C84.1469 30.224 82.7469 29.616 80.9389 29.616C79.1629 29.616 77.7789 30.224 76.7869 31.44C75.7949 32.64 75.2989 34.336 75.2989 36.528C75.2989 38.704 75.7949 40.408 76.7869 41.64C77.7789 42.856 79.1629 43.464 80.9389 43.464ZM99.6533 45.216C97.9893 45.216 96.5653 44.864 95.3813 44.16C94.1973 43.456 93.2853 42.456 92.6453 41.16C92.0213 39.864 91.7093 38.32 91.7093 36.528C91.7093 34.752 92.0213 33.216 92.6453 31.92C93.2853 30.624 94.1973 29.624 95.3813 28.92C96.5653 28.216 97.9893 27.864 99.6533 27.864C100.645 27.864 101.589 28.008 102.485 28.296C103.381 28.584 104.157 28.992 104.813 29.52C105.085 29.712 105.237 29.936 105.269 30.192C105.317 30.448 105.277 30.68 105.149 30.888C105.021 31.08 104.837 31.208 104.597 31.272C104.373 31.32 104.117 31.24 103.829 31.032C102.693 30.12 101.317 29.664 99.7013 29.664C97.7973 29.664 96.3413 30.264 95.3333 31.464C94.3253 32.664 93.8213 34.352 93.8213 36.528C93.8213 38.72 94.3253 40.416 95.3333 41.616C96.3413 42.816 97.7973 43.416 99.7013 43.416C101.317 43.416 102.709 42.952 103.877 42.024C104.165 41.832 104.421 41.76 104.645 41.808C104.885 41.856 105.061 41.976 105.173 42.168C105.301 42.36 105.349 42.576 105.317 42.816C105.285 43.056 105.149 43.272 104.909 43.464C104.221 44.04 103.429 44.48 102.533 44.784C101.637 45.072 100.677 45.216 99.6533 45.216Z" fill="white"/>
</g>
<defs>
<filter id="filter0_d_3409_3512" x="0" y="0" width="138" height="138" filterUnits="userSpaceOnUse" color-interpolation-filters="sRGB">
<feFlood flood-opacity="0" result="BackgroundImageFix"/>
<feColorMatrix in="SourceAlpha" type="matrix" values="0 0 0 0 0 0 0 0 0 0 0 0 0 0 0 0 0 0 127 0" result="hardAlpha"/>
<feOffset dy="4"/>
<feGaussianBlur stdDeviation="2"/>
<feComposite in2="hardAlpha" operator="out"/>
<feColorMatrix type="matrix" values="0 0 0 0 0 0 0 0 0 0 0 0 0 0 0 0 0 0 0.25 0"/>
<feBlend mode="normal" in2="BackgroundImageFix" result="effect1_dropShadow_3409_3512"/>
<feBlend mode="normal" in="SourceGraphic" in2="effect1_dropShadow_3409_3512" result="shape"/>
</filter>
</defs>
</svg>
