<svg width="20" height="20" viewBox="0 0 20 20" fill="none" xmlns="http://www.w3.org/2000/svg">
<path d="M16.1292 8.3651C15.5625 5.49844 13.0333 3.33594 10 3.33594C7.59167 3.33594 5.50417 4.7026 4.45833 6.69844C1.95417 6.96927 0 9.0901 0 11.6693C0 14.4318 2.2375 16.6693 5 16.6693H15.8333C18.1333 16.6693 20 14.8026 20 12.5026C20 10.3026 18.2875 8.51927 16.1292 8.3651ZM15.8333 15.0026H5C3.15833 15.0026 1.66667 13.5109 1.66667 11.6693C1.66667 9.8276 3.15833 8.33594 5 8.33594H5.59167C6.1375 6.4151 7.9 5.0026 10 5.0026C12.5333 5.0026 14.5833 7.0526 14.5833 9.58594V10.0026H15.8333C17.2125 10.0026 18.3333 11.1234 18.3333 12.5026C18.3333 13.8818 17.2125 15.0026 15.8333 15.0026Z" fill="#85898E"/>
</svg>
