<svg width="20" height="21" viewBox="0 0 20 21" fill="none" xmlns="http://www.w3.org/2000/svg">
<path d="M11.6667 10.5C11.6667 9.57917 10.9208 8.83333 10 8.83333C9.07917 8.83333 8.33333 9.57917 8.33333 10.5C8.33333 11.4208 9.07917 12.1667 10 12.1667C10.9208 12.1667 11.6667 11.4208 11.6667 10.5ZM10 3C5.85833 3 2.5 6.35833 2.5 10.5H0L3.33333 13.8333L6.66667 10.5H4.16667C4.16667 7.27917 6.77917 4.66667 10 4.66667C13.2208 4.66667 15.8333 7.27917 15.8333 10.5C15.8333 13.7208 13.2208 16.3333 10 16.3333C8.7375 16.3333 7.575 15.9292 6.61667 15.2458L5.4375 16.4417C6.70417 17.4167 8.28333 18 10 18C14.1417 18 17.5 14.6417 17.5 10.5C17.5 6.35833 14.1417 3 10 3Z" fill="#757575"/>
</svg>
