<svg width="19" height="19" viewBox="0 0 19 19" fill="none" xmlns="http://www.w3.org/2000/svg">
<path d="M10.3292 1C5.725 1 2 4.72917 2 9.33333C2 13.9375 5.725 17.6667 10.3292 17.6667C14.9333 17.6667 18.6667 13.9375 18.6667 9.33333C18.6667 4.72917 14.9333 1 10.3292 1ZM10.3333 16C6.65 16 3.66667 13.0167 3.66667 9.33333C3.66667 5.65 6.65 2.66667 10.3333 2.66667C14.0167 2.66667 17 5.65 17 9.33333C17 13.0167 14.0167 16 10.3333 16Z" fill="#85898E"/>
<path d="M10.75 5.16406H9.5V10.1641L13.8708 12.7891L14.5 11.7641L10.75 9.53906V5.16406Z" fill="#85898E"/>
</svg>
