<svg width="78" height="24" viewBox="0 0 78 24" fill="none" xmlns="http://www.w3.org/2000/svg">
<path fill-rule="evenodd" clip-rule="evenodd" d="M11.6 12.8885L1.6 7.88282C1.2 7.68259 1 7.38225 1 6.9818C1 6.58134 1.2 6.281 1.5 6.08077L11.5 1.07509C11.8 0.974972 12.1 0.974972 12.4 1.07509L22.4 6.08077C22.8 6.281 23 6.58134 23 6.9818C23 7.38225 22.8 7.68259 22.4 7.88282L12.4 12.8885C12.3 12.9886 12.2 12.9886 12 12.9886C11.8 12.9886 11.7 12.9886 11.6 12.8885ZM22.5 17.8942C22.9 17.694 23.1 17.0933 22.9 16.5927C22.6 16.0921 22 15.8919 21.7 16.1923L12.1 20.9977L2.5 16.1923C2 15.8919 1.4 16.0921 1.2 16.5927C0.9 17.0933 1.1 17.694 1.6 17.8942L11.6 22.8999C11.7 23 11.8 23 12 23C12.2 23 12.3 23 12.5 22.8999L22.5 17.8942ZM22.9 11.587C23.1 12.0876 22.9 12.6883 22.5 12.8885L12.5 17.8942C12.3 17.9943 12.2 17.9943 12 17.9943C11.8 17.9943 11.7 17.9943 11.6 17.8942L1.6 12.8885C1.1 12.6883 0.9 12.0876 1.2 11.587C1.4 11.0865 2 10.8862 2.5 11.1866L12.1 15.992L21.7 11.1866C22 10.8862 22.6 11.0865 22.9 11.587ZM19.8 6.9818L12 3.07736L4.2 6.9818L12 10.8862L19.8 6.9818Z" fill="black"/>
<mask id="mask0_3409_27896" style="mask-type:alpha" maskUnits="userSpaceOnUse" x="1" y="1" width="22" height="22">
<path fill-rule="evenodd" clip-rule="evenodd" d="M11.6 12.8885L1.6 7.88282C1.2 7.68259 1 7.38225 1 6.9818C1 6.58134 1.2 6.281 1.5 6.08077L11.5 1.07509C11.8 0.974972 12.1 0.974972 12.4 1.07509L22.4 6.08077C22.8 6.281 23 6.58134 23 6.9818C23 7.38225 22.8 7.68259 22.4 7.88282L12.4 12.8885C12.3 12.9886 12.2 12.9886 12 12.9886C11.8 12.9886 11.7 12.9886 11.6 12.8885ZM22.5 17.8942C22.9 17.694 23.1 17.0933 22.9 16.5927C22.6 16.0921 22 15.8919 21.7 16.1923L12.1 20.9977L2.5 16.1923C2 15.8919 1.4 16.0921 1.2 16.5927C0.9 17.0933 1.1 17.694 1.6 17.8942L11.6 22.8999C11.7 23 11.8 23 12 23C12.2 23 12.3 23 12.5 22.8999L22.5 17.8942ZM22.9 11.587C23.1 12.0876 22.9 12.6883 22.5 12.8885L12.5 17.8942C12.3 17.9943 12.2 17.9943 12 17.9943C11.8 17.9943 11.7 17.9943 11.6 17.8942L1.6 12.8885C1.1 12.6883 0.9 12.0876 1.2 11.587C1.4 11.0865 2 10.8862 2.5 11.1866L12.1 15.992L21.7 11.1866C22 10.8862 22.6 11.0865 22.9 11.587ZM19.8 6.9818L12 3.07736L4.2 6.9818L12 10.8862L19.8 6.9818Z" fill="white"/>
</mask>
<g mask="url(#mask0_3409_27896)">
<rect width="24" height="24" fill="#1E88E5"/>
</g>
<path d="M34.68 19.14C33.9867 19.14 33.64 18.7867 33.64 18.08V5.82C33.64 5.11333 33.9867 4.76 34.68 4.76C35.3733 4.76 35.72 5.11333 35.72 5.82V10.98H43.62V5.82C43.62 5.11333 43.9667 4.76 44.66 4.76C45.34 4.76 45.68 5.11333 45.68 5.82V18.08C45.68 18.7867 45.34 19.14 44.66 19.14C43.9667 19.14 43.62 18.7867 43.62 18.08V12.72H35.72V18.08C35.72 18.7867 35.3733 19.14 34.68 19.14ZM49.852 19.14C49.2654 19.14 48.972 18.7933 48.972 18.1V5.74C48.972 5.08667 49.2987 4.76 49.952 4.76C50.5787 4.76 50.892 5.08667 50.892 5.74V15.62L58.632 5.36C58.8054 5.13333 58.9654 4.98 59.112 4.9C59.2587 4.80667 59.4587 4.76 59.712 4.76C59.9654 4.76 60.1654 4.84667 60.312 5.02C60.472 5.19333 60.552 5.42667 60.552 5.72V18.14C60.552 18.8067 60.232 19.14 59.592 19.14C58.952 19.14 58.632 18.8067 58.632 18.14V8.26L50.892 18.52C50.732 18.7467 50.5787 18.9067 50.432 19C50.2987 19.0933 50.1054 19.14 49.852 19.14ZM64.8753 19.14C64.182 19.14 63.8353 18.7867 63.8353 18.08V6.02C63.8353 5.27333 64.2086 4.9 64.9553 4.9H74.6553C75.3886 4.9 75.7553 5.27333 75.7553 6.02V18.08C75.7553 18.7867 75.4153 19.14 74.7353 19.14C74.042 19.14 73.6953 18.7867 73.6953 18.08V6.64H65.9153V18.08C65.9153 18.7867 65.5686 19.14 64.8753 19.14Z" fill="white"/>
</svg>
